<svg width="34" height="33" viewBox="0 0 34 33" fill="none" xmlns="http://www.w3.org/2000/svg">
<path d="M16.997 15.5906C18.6099 15.5906 19.9519 14.3212 19.9519 12.7557V2.83419C19.9519 1.26946 18.6099 0 16.997 0C15.3841 0 14.042 1.26946 14.042 2.83419V12.7564C14.0428 14.3212 15.3841 15.5906 16.997 15.5906Z" fill="#B3404A"/>
<path d="M23.3113 2.45203C22.9463 2.30476 22.5298 2.34378 22.1991 2.55659C21.8698 2.76939 21.6718 3.12799 21.6718 3.51236V7.27729C21.6718 7.68964 21.9002 8.0696 22.2666 8.2743C25.4469 10.0467 27.515 13.3433 27.515 17.1097C27.515 22.7457 22.7984 27.3316 16.9924 27.3316C11.1856 27.3316 6.47741 22.7457 6.47741 17.1097C6.47741 13.3448 8.61151 10.0489 11.7357 8.27577C12.0983 8.07033 12.3221 7.69112 12.3221 7.28318V3.51163C12.3221 3.12799 12.1241 2.76866 11.7948 2.55585C11.4648 2.34231 11.0483 2.30402 10.6826 2.45129C4.74691 4.85472 0.641052 10.5121 0.641052 17.1097C0.641052 25.8869 7.96438 33 17.0068 33C26.0477 33 33.3597 25.8869 33.3597 17.1097C33.3589 10.5121 29.2493 4.85472 23.3113 2.45203Z" fill="#B3404A"/>
</svg>
