<?xml version="1.0" encoding="iso-8859-1"?>
<!-- Generator: Adobe Illustrator 19.0.0, SVG Export Plug-In . SVG Version: 6.00 Build 0)  -->
<svg version="1.1" id="Layer_1" xmlns="http://www.w3.org/2000/svg" xmlns:xlink="http://www.w3.org/1999/xlink" x="0px" y="0px"
	 viewBox="0 0 511.999 511.999" style="enable-background:new 0 0 511.999 511.999;" xml:space="preserve">
<g>
	<circle style="fill:#F4B2B0;" cx="104.609" cy="361.276" r="47.518"/>
	<path style="fill:#F4B2B0;" d="M243.636,111.498v242.989h55.5c3.295-23.024,23.087-40.726,47.024-40.726
		c23.937,0,43.729,17.701,47.024,40.726h55.744V111.498H243.636z"/>
</g>
<path style="fill:#B3404A;" d="M498.032,238.485h-35.137v-21.417h21.16c7.713,0,13.968-6.255,13.968-13.968
	s-6.255-13.968-13.968-13.968h-21.16v-21.418h7.185c7.713,0,13.968-6.255,13.968-13.968c0-7.713-6.255-13.968-13.968-13.968h-7.185
	v-28.281c0-7.713-6.255-13.968-13.968-13.968H243.636c-7.714,0-13.968,6.255-13.968,13.968V340.52H195.61v-70.717
	c0-7.713-6.253-13.968-13.968-13.968c-7.714,0-13.968,6.255-13.968,13.968v70.717h-5.197c-8.533-23.717-31.249-40.726-57.868-40.726
	S55.275,316.802,46.74,340.52h-9.346c-5.216,0-9.459-4.243-9.459-9.459v-46.833c0-2.802,1.231-5.443,3.377-7.246
	c0.258-0.216,0.508-0.443,0.75-0.677l33.796-32.841h51.168c7.714,0,13.968-6.255,13.968-13.968s-6.253-13.968-13.968-13.968H78.722
	l25.391-66.924c8.647-19.038,27.691-31.359,48.511-31.427l15.049,0.071v56.634c0,7.713,6.253,13.968,13.968,13.968
	s13.968-6.255,13.968-13.968v-70.536c0-7.689-6.213-13.931-13.902-13.968l-29.063-0.137c-32.03,0.103-61.155,19.073-74.198,48.327
	c-0.108,0.242-0.208,0.486-0.302,0.733l-32.615,85.963l-32.613,31.691C4.7,263.07,0,273.342,0,284.228v46.833
	c0,20.621,16.775,37.395,37.395,37.395h6.164c3.569,30.528,29.578,54.303,61.049,54.303s57.48-23.775,61.049-54.303h119.452
	c3.569,30.528,29.578,54.303,61.049,54.303c7.713,0,13.968-6.255,13.968-13.968c0-7.713-6.255-13.968-13.968-13.968
	c-18.498,0-33.546-15.047-33.546-33.546c0-1.631,0.123-3.234,0.349-4.804l0.001-0.007c0.14-0.979,0.328-1.94,0.552-2.889
	c0.018-0.075,0.035-0.152,0.053-0.229c0.221-0.911,0.48-1.805,0.775-2.683c0.031-0.091,0.061-0.182,0.092-0.271
	c0.305-0.886,0.643-1.754,1.018-2.605c0.021-0.046,0.042-0.092,0.063-0.138c4.464-9.973,13.667-17.317,24.525-19.352
	c0.021-0.003,0.043-0.007,0.064-0.011c0.955-0.177,1.925-0.313,2.904-0.405c0.073-0.007,0.145-0.011,0.218-0.017
	c0.968-0.085,1.946-0.135,2.932-0.135s1.964,0.05,2.932,0.135c0.073,0.006,0.145,0.01,0.218,0.017
	c0.979,0.092,1.949,0.228,2.904,0.405c0.021,0.003,0.043,0.007,0.066,0.011c10.856,2.035,20.059,9.377,24.523,19.348
	c0.022,0.049,0.045,0.096,0.066,0.145c0.374,0.848,0.712,1.715,1.017,2.598c0.032,0.092,0.063,0.184,0.094,0.277
	c0.293,0.877,0.553,1.771,0.774,2.679c0.018,0.077,0.035,0.155,0.054,0.232c0.222,0.947,0.411,1.908,0.55,2.886
	c0,0.003,0.001,0.004,0.001,0.004c0.226,1.571,0.349,3.175,0.349,4.806c0,7.713,6.255,13.968,13.968,13.968
	c5.084,0,9.522-2.727,11.965-6.788h43.288c7.713,0,13.968-6.255,13.968-13.968v-88.067h35.137c7.713,0,13.968-6.255,13.968-13.968
	C511.999,244.737,505.747,238.485,498.032,238.485z M104.609,394.822c-18.498,0-33.546-15.047-33.546-33.546
	s15.049-33.548,33.546-33.548s33.546,15.049,33.546,33.548C138.155,379.775,123.106,394.822,104.609,394.822z M434.959,340.52
	h-30.932c-0.254-0.705-0.528-1.401-0.807-2.094c-0.022-0.056-0.043-0.113-0.067-0.169c-0.291-0.717-0.595-1.425-0.911-2.126
	c-0.001-0.003-0.003-0.007-0.006-0.011c-8.587-19.066-26.609-32.988-48.09-35.79c-0.352-0.046-0.703-0.094-1.056-0.134
	c-0.465-0.053-0.93-0.098-1.398-0.141c-0.546-0.05-1.096-0.089-1.647-0.126c-0.356-0.022-0.71-0.047-1.067-0.064
	c-0.936-0.043-1.876-0.071-2.822-0.071s-1.884,0.028-2.82,0.071c-0.358,0.017-0.711,0.042-1.067,0.064
	c-0.55,0.035-1.099,0.075-1.647,0.126c-0.468,0.042-0.933,0.088-1.398,0.141c-0.353,0.041-0.704,0.088-1.056,0.134
	c-21.475,2.801-39.494,16.718-48.084,35.778c-0.006,0.011-0.01,0.022-0.015,0.032c-0.314,0.697-0.616,1.4-0.905,2.111
	c-0.025,0.063-0.049,0.126-0.074,0.189c-0.277,0.689-0.549,1.379-0.802,2.08H257.61h-0.008V125.466h177.356v14.313h-30.485
	c-7.713,0-13.968,6.255-13.968,13.968s6.255,13.968,13.968,13.968h30.485v21.418h-16.509c-7.713,0-13.968,6.255-13.968,13.968
	c0,7.713,6.255,13.968,13.968,13.968h16.509v21.417h-2.532c-7.713,0-13.968,6.255-13.968,13.968s6.255,13.968,13.968,13.968h2.532
	v74.099H434.959z"/>
<g>
</g>
<g>
</g>
<g>
</g>
<g>
</g>
<g>
</g>
<g>
</g>
<g>
</g>
<g>
</g>
<g>
</g>
<g>
</g>
<g>
</g>
<g>
</g>
<g>
</g>
<g>
</g>
<g>
</g>
</svg>
